<?xml version="1.0" standalone="no"?>
<!DOCTYPE svg PUBLIC "-//W3C//DTD SVG 20010904//EN"
 "http://www.w3.org/TR/2001/REC-SVG-20010904/DTD/svg10.dtd">
<svg version="1.0" xmlns="http://www.w3.org/2000/svg"
 width="300.000000pt" height="300.000000pt" viewBox="0 0 300.000000 300.000000"
 preserveAspectRatio="xMidYMid meet">
<metadata>
Created by potrace 1.11, written by Peter Selinger 2001-2013
</metadata>
<g transform="translate(0.000000,300.000000) scale(0.100000,-0.100000)"
fill="#000000" stroke="none">
<path d="M0 1500 l0 -1500 1500 0 1500 0 0 1500 0 1500 -1500 0 -1500 0 0
-1500z m1860 1241 c-7 -27 -8 -47 -2 -49 34 -11 106 -68 132 -103 30 -42 31
-43 85 -40 79 4 157 -22 205 -68 22 -21 40 -45 40 -54 0 -26 -13 -20 -35 16
-33 52 -97 81 -180 81 -57 1 -69 -2 -66 -14 11 -42 12 -136 2 -173 -28 -96
-118 -175 -186 -162 -78 15 -98 94 -48 193 25 50 103 133 133 144 13 4 13 7 1
22 -20 24 -98 69 -112 64 -7 -2 -67 -168 -135 -369 l-122 -364 81 -140 c233
-404 287 -629 203 -859 -35 -98 -83 -170 -161 -244 -147 -141 -337 -191 -530
-142 -43 11 -79 19 -81 17 -1 -1 -23 -56 -48 -122 -65 -167 -98 -246 -103
-241 -3 3 18 90 46 195 28 105 51 194 51 199 0 4 -18 19 -39 34 -54 38 -108
122 -127 197 -35 139 19 325 124 430 59 59 123 90 203 99 l62 7 55 188 56 188
-53 105 c-132 266 -160 479 -86 642 75 164 247 294 410 311 56 6 61 8 74 38 9
19 26 36 43 42 15 6 28 9 28 7 0 -1 -9 -20 -19 -42 -11 -21 -18 -40 -16 -42 1
-1 16 -7 33 -11 35 -10 36 -9 47 71 5 32 12 48 24 50 21 4 26 -40 11 -101z"/>
<path d="M1702 2607 c-30 -35 -55 -222 -29 -215 13 4 92 157 102 201 7 26 5
27 -28 27 -19 0 -39 -6 -45 -13z"/>
<path d="M1591 2577 c-24 -12 -62 -43 -85 -68 -109 -121 -124 -251 -48 -429
l17 -42 84 264 c101 317 95 298 85 298 -5 0 -29 -10 -53 -23z"/>
<path d="M1928 2475 c-72 -49 -138 -177 -118 -230 11 -30 45 -48 74 -41 90 22
143 161 102 261 -8 19 -16 35 -18 35 -2 0 -20 -11 -40 -25z"/>
<path d="M1439 1484 c-6 -16 -26 -73 -46 -127 l-35 -97 39 -44 c40 -45 63
-101 63 -150 0 -42 -17 -22 -24 29 -7 45 -61 130 -81 127 -11 -2 -238 -623
-230 -630 14 -14 117 -21 174 -11 220 35 374 233 359 463 -6 85 -44 186 -125
331 -83 148 -80 144 -94 109z"/>
<path d="M1171 1259 c-158 -31 -281 -215 -269 -403 3 -44 13 -86 26 -111 20
-41 103 -125 121 -125 6 0 15 19 21 43 6 23 47 165 91 315 43 150 79 277 79
283 0 10 -8 10 -69 -2z"/>
</g>
</svg>
